REM DIRINDEX 1\2,1\3,1\4,1\5
REM DIRNAME cjc004,folder01,folder02,folder03,folder04
TITLE ""
FILE "1Q_t_0180-0189.mp3" MP3
  TRACK 01 AUDIO
    TITLE "3:cjc004_1440"
    INDEX 01 00:00:00
  TRACK 02 AUDIO
    TITLE "0:"
    INDEX 01 00:00:66
  TRACK 03 AUDIO
    TITLE "4:cjc004_1441"
    INDEX 01 00:01:09
  TRACK 04 AUDIO
    TITLE "0:"
    INDEX 01 00:02:34
  TRACK 05 AUDIO
    TITLE "5:cjc004_1442"
    INDEX 01 00:02:65
  TRACK 06 AUDIO
    TITLE "0:"
    INDEX 01 00:06:39
  TRACK 07 AUDIO
    TITLE "3:cjc004_1443"
    INDEX 01 00:07:25
  TRACK 08 AUDIO
    TITLE "0:"
    INDEX 01 00:08:32
  TRACK 09 AUDIO
    TITLE "4:cjc004_1444"
    INDEX 01 00:08:66
  TRACK 10 AUDIO
    TITLE "0:"
    INDEX 01 00:09:63
  TRACK 11 AUDIO
    TITLE "5:cjc004_1445"
    INDEX 01 00:10:16
  TRACK 12 AUDIO
    TITLE "0:"
    INDEX 01 00:15:27
  TRACK 13 AUDIO
    TITLE "3:cjc004_1446"
    INDEX 01 00:16:02
  TRACK 14 AUDIO
    TITLE "0:"
    INDEX 01 00:17:25
  TRACK 15 AUDIO
    TITLE "4:cjc004_1447"
    INDEX 01 00:17:59
  TRACK 16 AUDIO
    TITLE "0:"
    INDEX 01 00:19:56
  TRACK 17 AUDIO
    TITLE "5:cjc004_1448"
    INDEX 01 00:20:10
  TRACK 18 AUDIO
    TITLE "0:"
    INDEX 01 00:24:45
  TRACK 19 AUDIO
    TITLE "3:cjc004_1449"
    INDEX 01 00:25:19
  TRACK 20 AUDIO
    TITLE "0:"
    INDEX 01 00:26:30
  TRACK 21 AUDIO
    TITLE "4:cjc004_1450"
    INDEX 01 00:26:52
  TRACK 22 AUDIO
    TITLE "0:"
    INDEX 01 00:27:55
  TRACK 23 AUDIO
    TITLE "5:cjc004_1451"
    INDEX 01 00:28:08
  TRACK 24 AUDIO
    TITLE "0:"
    INDEX 01 00:32:05
  TRACK 25 AUDIO
    TITLE "3:cjc004_1452"
    INDEX 01 00:32:66
  TRACK 26 AUDIO
    TITLE "0:"
    INDEX 01 00:34:00
  TRACK 27 AUDIO
    TITLE "4:cjc004_1453"
    INDEX 01 00:34:20
  TRACK 28 AUDIO
    TITLE "0:"
    INDEX 01 00:35:23
  TRACK 29 AUDIO
    TITLE "5:cjc004_1454"
    INDEX 01 00:35:55
  TRACK 30 AUDIO
    TITLE "0:"
    INDEX 01 00:41:28
  TRACK 31 AUDIO
    TITLE "3:cjc004_1455"
    INDEX 01 00:42:23
  TRACK 32 AUDIO
    TITLE "0:"
    INDEX 01 00:43:19
  TRACK 33 AUDIO
    TITLE "4:cjc004_1456"
    INDEX 01 00:43:39
  TRACK 34 AUDIO
    TITLE "0:"
    INDEX 01 00:44:52
  TRACK 35 AUDIO
    TITLE "5:cjc004_1457"
    INDEX 01 00:45:06
  TRACK 36 AUDIO
    TITLE "0:"
    INDEX 01 00:49:14
  TRACK 37 AUDIO
    TITLE "3:cjc004_1458"
    INDEX 01 00:50:09
  TRACK 38 AUDIO
    TITLE "0:"
    INDEX 01 00:51:20
  TRACK 39 AUDIO
    TITLE "4:cjc004_1459"
    INDEX 01 00:51:36
  TRACK 40 AUDIO
    TITLE "0:"
    INDEX 01 00:52:55
  TRACK 41 AUDIO
    TITLE "5:cjc004_1460"
    INDEX 01 00:53:06
  TRACK 42 AUDIO
    TITLE "0:"
    INDEX 01 00:58:36
  TRACK 43 AUDIO
    TITLE "3:cjc004_1461"
    INDEX 01 00:59:22
  TRACK 44 AUDIO
    TITLE "0:"
    INDEX 01 01:00:35
  TRACK 45 AUDIO
    TITLE "4:cjc004_1462"
    INDEX 01 01:00:70
  TRACK 46 AUDIO
    TITLE "0:"
    INDEX 01 01:02:26
  TRACK 47 AUDIO
    TITLE "5:cjc004_1463"
    INDEX 01 01:02:59
  TRACK 48 AUDIO
    TITLE "0:"
    INDEX 01 01:07:21
  TRACK 49 AUDIO
    TITLE "3:cjc004_1464"
    INDEX 01 01:08:13
  TRACK 50 AUDIO
    TITLE "0:"
    INDEX 01 01:09:38
  TRACK 51 AUDIO
    TITLE "4:cjc004_1465"
    INDEX 01 01:09:57
  TRACK 52 AUDIO
    TITLE "0:"
    INDEX 01 01:11:09
  TRACK 53 AUDIO
    TITLE "5:cjc004_1466"
    INDEX 01 01:11:37
  TRACK 54 AUDIO
    TITLE "0:"
    INDEX 01 01:16:46
  TRACK 55 AUDIO
    TITLE "3:cjc004_1467"
    INDEX 01 01:17:20
  TRACK 56 AUDIO
    TITLE "0:"
    INDEX 01 01:18:45
  TRACK 57 AUDIO
    TITLE "4:cjc004_1468"
    INDEX 01 01:19:03
  TRACK 58 AUDIO
    TITLE "0:"
    INDEX 01 01:20:06
  TRACK 59 AUDIO
    TITLE "5:cjc004_1469"
    INDEX 01 01:20:34
  TRACK 60 AUDIO
    TITLE "0:"
    INDEX 01 01:25:17
